<mxfile host="app.diagrams.net" modified="2023-10-08T04:27:17.569Z" agent="Mozilla/5.0 (Windows NT 10.0; Win64; x64) AppleWebKit/537.36 (KHTML, like Gecko) Chrome/117.0.0.0 Safari/537.36" etag="FHMf_8lf5lBn4fUHQRtu" version="21.2.1" type="device">
  <diagram name="Page-1" id="9DgFuwnsuGAK3JTM8OCj">
    <mxGraphModel dx="1134" dy="666" grid="1" gridSize="10" guides="1" tooltips="1" connect="1" arrows="1" fold="1" page="1" pageScale="1" pageWidth="850" pageHeight="1100" math="0" shadow="0">
      <root>
        <mxCell id="0" />
        <mxCell id="1" parent="0" />
        <mxCell id="25QhoJMQ2zQzSuma18HG-43" style="edgeStyle=orthogonalEdgeStyle;rounded=0;orthogonalLoop=1;jettySize=auto;html=1;exitX=1;exitY=0;exitDx=0;exitDy=0;entryX=0.5;entryY=0;entryDx=0;entryDy=0;endArrow=none;endFill=0;" edge="1" parent="1" source="25QhoJMQ2zQzSuma18HG-1" target="25QhoJMQ2zQzSuma18HG-13">
          <mxGeometry relative="1" as="geometry" />
        </mxCell>
        <mxCell id="25QhoJMQ2zQzSuma18HG-58" style="edgeStyle=orthogonalEdgeStyle;rounded=0;orthogonalLoop=1;jettySize=auto;html=1;exitX=0.5;exitY=0;exitDx=0;exitDy=0;entryX=0.5;entryY=0;entryDx=0;entryDy=0;endArrow=none;endFill=0;" edge="1" parent="1" source="25QhoJMQ2zQzSuma18HG-1" target="25QhoJMQ2zQzSuma18HG-5">
          <mxGeometry relative="1" as="geometry" />
        </mxCell>
        <mxCell id="25QhoJMQ2zQzSuma18HG-1" value="General User" style="swimlane;fontStyle=1;align=center;verticalAlign=top;childLayout=stackLayout;horizontal=1;startSize=26;horizontalStack=0;resizeParent=1;resizeParentMax=0;resizeLast=0;collapsible=1;marginBottom=0;whiteSpace=wrap;html=1;" vertex="1" parent="1">
          <mxGeometry x="50" y="210" width="160" height="190" as="geometry" />
        </mxCell>
        <mxCell id="25QhoJMQ2zQzSuma18HG-2" value="- name: string&lt;br&gt;- id: string&lt;br&gt;- age: int&lt;br&gt;- gender: string&lt;br&gt;- address: string&lt;br&gt;- contact: int" style="text;strokeColor=none;fillColor=none;align=left;verticalAlign=top;spacingLeft=4;spacingRight=4;overflow=hidden;rotatable=0;points=[[0,0.5],[1,0.5]];portConstraint=eastwest;whiteSpace=wrap;html=1;" vertex="1" parent="25QhoJMQ2zQzSuma18HG-1">
          <mxGeometry y="26" width="160" height="94" as="geometry" />
        </mxCell>
        <mxCell id="25QhoJMQ2zQzSuma18HG-3" value="" style="line;strokeWidth=1;fillColor=none;align=left;verticalAlign=middle;spacingTop=-1;spacingLeft=3;spacingRight=3;rotatable=0;labelPosition=right;points=[];portConstraint=eastwest;strokeColor=inherit;" vertex="1" parent="25QhoJMQ2zQzSuma18HG-1">
          <mxGeometry y="120" width="160" height="8" as="geometry" />
        </mxCell>
        <mxCell id="25QhoJMQ2zQzSuma18HG-4" value="+ findHelp()&lt;br&gt;+ addGeneralUser()&lt;br&gt;+ editStatus()" style="text;strokeColor=none;fillColor=none;align=left;verticalAlign=top;spacingLeft=4;spacingRight=4;overflow=hidden;rotatable=0;points=[[0,0.5],[1,0.5]];portConstraint=eastwest;whiteSpace=wrap;html=1;" vertex="1" parent="25QhoJMQ2zQzSuma18HG-1">
          <mxGeometry y="128" width="160" height="62" as="geometry" />
        </mxCell>
        <mxCell id="25QhoJMQ2zQzSuma18HG-5" value="Professional User" style="swimlane;fontStyle=1;align=center;verticalAlign=top;childLayout=stackLayout;horizontal=1;startSize=26;horizontalStack=0;resizeParent=1;resizeParentMax=0;resizeLast=0;collapsible=1;marginBottom=0;whiteSpace=wrap;html=1;" vertex="1" parent="1">
          <mxGeometry x="630" y="140" width="160" height="220" as="geometry" />
        </mxCell>
        <mxCell id="25QhoJMQ2zQzSuma18HG-6" value="- name: string&lt;br style=&quot;border-color: var(--border-color);&quot;&gt;- id: string&lt;br style=&quot;border-color: var(--border-color);&quot;&gt;- age: int&lt;br style=&quot;border-color: var(--border-color);&quot;&gt;- gender: string&lt;br style=&quot;border-color: var(--border-color);&quot;&gt;- address: string&lt;br&gt;- contact: int&lt;br&gt;- qualification: string&lt;br&gt;- experience: string" style="text;strokeColor=none;fillColor=none;align=left;verticalAlign=top;spacingLeft=4;spacingRight=4;overflow=hidden;rotatable=0;points=[[0,0.5],[1,0.5]];portConstraint=eastwest;whiteSpace=wrap;html=1;" vertex="1" parent="25QhoJMQ2zQzSuma18HG-5">
          <mxGeometry y="26" width="160" height="124" as="geometry" />
        </mxCell>
        <mxCell id="25QhoJMQ2zQzSuma18HG-7" value="" style="line;strokeWidth=1;fillColor=none;align=left;verticalAlign=middle;spacingTop=-1;spacingLeft=3;spacingRight=3;rotatable=0;labelPosition=right;points=[];portConstraint=eastwest;strokeColor=inherit;" vertex="1" parent="25QhoJMQ2zQzSuma18HG-5">
          <mxGeometry y="150" width="160" height="8" as="geometry" />
        </mxCell>
        <mxCell id="25QhoJMQ2zQzSuma18HG-8" value="+ provideHelp()&lt;br style=&quot;border-color: var(--border-color);&quot;&gt;+ addProfessionalUser()&lt;br style=&quot;border-color: var(--border-color);&quot;&gt;+ editStatus()" style="text;strokeColor=none;fillColor=none;align=left;verticalAlign=top;spacingLeft=4;spacingRight=4;overflow=hidden;rotatable=0;points=[[0,0.5],[1,0.5]];portConstraint=eastwest;whiteSpace=wrap;html=1;" vertex="1" parent="25QhoJMQ2zQzSuma18HG-5">
          <mxGeometry y="158" width="160" height="62" as="geometry" />
        </mxCell>
        <mxCell id="25QhoJMQ2zQzSuma18HG-9" value="Blog" style="swimlane;fontStyle=1;align=center;verticalAlign=top;childLayout=stackLayout;horizontal=1;startSize=26;horizontalStack=0;resizeParent=1;resizeParentMax=0;resizeLast=0;collapsible=1;marginBottom=0;whiteSpace=wrap;html=1;" vertex="1" parent="1">
          <mxGeometry x="40" y="465" width="160" height="160" as="geometry" />
        </mxCell>
        <mxCell id="25QhoJMQ2zQzSuma18HG-10" value="+ title: string&lt;br style=&quot;border-color: var(--border-color);&quot;&gt;- author: string&lt;br style=&quot;border-color: var(--border-color);&quot;&gt;+ wordCount: int&lt;br style=&quot;border-color: var(--border-color);&quot;&gt;+ category: string&lt;br style=&quot;border-color: var(--border-color);&quot;&gt;- userRating: int&lt;br&gt;" style="text;strokeColor=none;fillColor=none;align=left;verticalAlign=top;spacingLeft=4;spacingRight=4;overflow=hidden;rotatable=0;points=[[0,0.5],[1,0.5]];portConstraint=eastwest;whiteSpace=wrap;html=1;" vertex="1" parent="25QhoJMQ2zQzSuma18HG-9">
          <mxGeometry y="26" width="160" height="84" as="geometry" />
        </mxCell>
        <mxCell id="25QhoJMQ2zQzSuma18HG-11" value="" style="line;strokeWidth=1;fillColor=none;align=left;verticalAlign=middle;spacingTop=-1;spacingLeft=3;spacingRight=3;rotatable=0;labelPosition=right;points=[];portConstraint=eastwest;strokeColor=inherit;" vertex="1" parent="25QhoJMQ2zQzSuma18HG-9">
          <mxGeometry y="110" width="160" height="8" as="geometry" />
        </mxCell>
        <mxCell id="25QhoJMQ2zQzSuma18HG-12" value="+ submitBlog()&lt;br&gt;+ deleteBlog()" style="text;strokeColor=none;fillColor=none;align=left;verticalAlign=top;spacingLeft=4;spacingRight=4;overflow=hidden;rotatable=0;points=[[0,0.5],[1,0.5]];portConstraint=eastwest;whiteSpace=wrap;html=1;" vertex="1" parent="25QhoJMQ2zQzSuma18HG-9">
          <mxGeometry y="118" width="160" height="42" as="geometry" />
        </mxCell>
        <mxCell id="25QhoJMQ2zQzSuma18HG-13" value="Psychological Test" style="swimlane;fontStyle=1;align=center;verticalAlign=top;childLayout=stackLayout;horizontal=1;startSize=26;horizontalStack=0;resizeParent=1;resizeParentMax=0;resizeLast=0;collapsible=1;marginBottom=0;whiteSpace=wrap;html=1;" vertex="1" parent="1">
          <mxGeometry x="340" y="280" width="160" height="170" as="geometry" />
        </mxCell>
        <mxCell id="25QhoJMQ2zQzSuma18HG-14" value="+ testCategory: string&lt;br&gt;+ testName: string&lt;br&gt;+ numberOfQuestions: int&lt;br&gt;+ scoreIfPossible: int&lt;br&gt;+ timeRequired: int" style="text;strokeColor=none;fillColor=none;align=left;verticalAlign=top;spacingLeft=4;spacingRight=4;overflow=hidden;rotatable=0;points=[[0,0.5],[1,0.5]];portConstraint=eastwest;whiteSpace=wrap;html=1;" vertex="1" parent="25QhoJMQ2zQzSuma18HG-13">
          <mxGeometry y="26" width="160" height="84" as="geometry" />
        </mxCell>
        <mxCell id="25QhoJMQ2zQzSuma18HG-15" value="" style="line;strokeWidth=1;fillColor=none;align=left;verticalAlign=middle;spacingTop=-1;spacingLeft=3;spacingRight=3;rotatable=0;labelPosition=right;points=[];portConstraint=eastwest;strokeColor=inherit;" vertex="1" parent="25QhoJMQ2zQzSuma18HG-13">
          <mxGeometry y="110" width="160" height="8" as="geometry" />
        </mxCell>
        <mxCell id="25QhoJMQ2zQzSuma18HG-16" value="+ takeTest()&lt;br&gt;+ addTest()&lt;br&gt;+ deleteTest()" style="text;strokeColor=none;fillColor=none;align=left;verticalAlign=top;spacingLeft=4;spacingRight=4;overflow=hidden;rotatable=0;points=[[0,0.5],[1,0.5]];portConstraint=eastwest;whiteSpace=wrap;html=1;" vertex="1" parent="25QhoJMQ2zQzSuma18HG-13">
          <mxGeometry y="118" width="160" height="52" as="geometry" />
        </mxCell>
        <mxCell id="25QhoJMQ2zQzSuma18HG-21" value="Medical Articles" style="swimlane;fontStyle=1;align=center;verticalAlign=top;childLayout=stackLayout;horizontal=1;startSize=26;horizontalStack=0;resizeParent=1;resizeParentMax=0;resizeLast=0;collapsible=1;marginBottom=0;whiteSpace=wrap;html=1;" vertex="1" parent="1">
          <mxGeometry x="290" y="500" width="160" height="200" as="geometry" />
        </mxCell>
        <mxCell id="25QhoJMQ2zQzSuma18HG-22" value="+ title: string&lt;br&gt;+ author: string&lt;br&gt;+ wordCount: int&lt;br&gt;+ peerReviewed: boolean&lt;br&gt;+ category: string&lt;br&gt;+ userRating: int" style="text;strokeColor=none;fillColor=none;align=left;verticalAlign=top;spacingLeft=4;spacingRight=4;overflow=hidden;rotatable=0;points=[[0,0.5],[1,0.5]];portConstraint=eastwest;whiteSpace=wrap;html=1;" vertex="1" parent="25QhoJMQ2zQzSuma18HG-21">
          <mxGeometry y="26" width="160" height="94" as="geometry" />
        </mxCell>
        <mxCell id="25QhoJMQ2zQzSuma18HG-23" value="" style="line;strokeWidth=1;fillColor=none;align=left;verticalAlign=middle;spacingTop=-1;spacingLeft=3;spacingRight=3;rotatable=0;labelPosition=right;points=[];portConstraint=eastwest;strokeColor=inherit;" vertex="1" parent="25QhoJMQ2zQzSuma18HG-21">
          <mxGeometry y="120" width="160" height="8" as="geometry" />
        </mxCell>
        <mxCell id="25QhoJMQ2zQzSuma18HG-24" value="+ addArticle()&lt;br&gt;+ rate()&lt;br&gt;+ delete()&lt;br&gt;+ edit()" style="text;strokeColor=none;fillColor=none;align=left;verticalAlign=top;spacingLeft=4;spacingRight=4;overflow=hidden;rotatable=0;points=[[0,0.5],[1,0.5]];portConstraint=eastwest;whiteSpace=wrap;html=1;" vertex="1" parent="25QhoJMQ2zQzSuma18HG-21">
          <mxGeometry y="128" width="160" height="72" as="geometry" />
        </mxCell>
        <mxCell id="25QhoJMQ2zQzSuma18HG-32" value="1..*" style="text;html=1;strokeColor=none;fillColor=none;align=center;verticalAlign=middle;whiteSpace=wrap;rounded=0;" vertex="1" parent="1">
          <mxGeometry x="200" y="280" width="60" height="30" as="geometry" />
        </mxCell>
        <mxCell id="25QhoJMQ2zQzSuma18HG-33" value="1..*" style="text;html=1;strokeColor=none;fillColor=none;align=center;verticalAlign=middle;whiteSpace=wrap;rounded=0;" vertex="1" parent="1">
          <mxGeometry x="210" y="190" width="60" height="30" as="geometry" />
        </mxCell>
        <mxCell id="25QhoJMQ2zQzSuma18HG-34" value="1..*" style="text;html=1;strokeColor=none;fillColor=none;align=center;verticalAlign=middle;whiteSpace=wrap;rounded=0;" vertex="1" parent="1">
          <mxGeometry x="280" y="470" width="60" height="30" as="geometry" />
        </mxCell>
        <mxCell id="25QhoJMQ2zQzSuma18HG-35" value="1..*" style="text;html=1;strokeColor=none;fillColor=none;align=center;verticalAlign=middle;whiteSpace=wrap;rounded=0;" vertex="1" parent="1">
          <mxGeometry x="200" y="340" width="60" height="30" as="geometry" />
        </mxCell>
        <mxCell id="25QhoJMQ2zQzSuma18HG-36" value="1..*" style="text;html=1;strokeColor=none;fillColor=none;align=center;verticalAlign=middle;whiteSpace=wrap;rounded=0;" vertex="1" parent="1">
          <mxGeometry x="375" y="250" width="60" height="30" as="geometry" />
        </mxCell>
        <mxCell id="25QhoJMQ2zQzSuma18HG-37" value="1..*" style="text;html=1;strokeColor=none;fillColor=none;align=center;verticalAlign=middle;whiteSpace=wrap;rounded=0;" vertex="1" parent="1">
          <mxGeometry x="80" y="180" width="60" height="30" as="geometry" />
        </mxCell>
        <mxCell id="25QhoJMQ2zQzSuma18HG-39" value="1..*" style="text;html=1;strokeColor=none;fillColor=none;align=center;verticalAlign=middle;whiteSpace=wrap;rounded=0;" vertex="1" parent="1">
          <mxGeometry x="190" y="540" width="60" height="30" as="geometry" />
        </mxCell>
        <mxCell id="25QhoJMQ2zQzSuma18HG-40" value="1..*" style="text;html=1;strokeColor=none;fillColor=none;align=center;verticalAlign=middle;whiteSpace=wrap;rounded=0;" vertex="1" parent="1">
          <mxGeometry x="490" y="320" width="60" height="30" as="geometry" />
        </mxCell>
        <mxCell id="25QhoJMQ2zQzSuma18HG-42" style="rounded=0;orthogonalLoop=1;jettySize=auto;html=1;exitX=1;exitY=0.5;exitDx=0;exitDy=0;entryX=1;entryY=0.5;entryDx=0;entryDy=0;strokeColor=default;edgeStyle=orthogonalEdgeStyle;endArrow=none;endFill=0;" edge="1" parent="1" source="25QhoJMQ2zQzSuma18HG-4" target="25QhoJMQ2zQzSuma18HG-10">
          <mxGeometry relative="1" as="geometry" />
        </mxCell>
        <mxCell id="25QhoJMQ2zQzSuma18HG-44" style="edgeStyle=orthogonalEdgeStyle;rounded=0;orthogonalLoop=1;jettySize=auto;html=1;exitX=1;exitY=0.5;exitDx=0;exitDy=0;entryX=0;entryY=0;entryDx=0;entryDy=0;endArrow=none;endFill=0;" edge="1" parent="1" source="25QhoJMQ2zQzSuma18HG-2" target="25QhoJMQ2zQzSuma18HG-21">
          <mxGeometry relative="1" as="geometry" />
        </mxCell>
        <mxCell id="25QhoJMQ2zQzSuma18HG-48" style="edgeStyle=orthogonalEdgeStyle;rounded=0;orthogonalLoop=1;jettySize=auto;html=1;exitX=0;exitY=0.5;exitDx=0;exitDy=0;entryX=1;entryY=0.5;entryDx=0;entryDy=0;endArrow=none;endFill=0;" edge="1" parent="1" source="25QhoJMQ2zQzSuma18HG-8" target="25QhoJMQ2zQzSuma18HG-14">
          <mxGeometry relative="1" as="geometry" />
        </mxCell>
        <mxCell id="25QhoJMQ2zQzSuma18HG-56" value="1..*" style="text;html=1;strokeColor=none;fillColor=none;align=center;verticalAlign=middle;whiteSpace=wrap;rounded=0;" vertex="1" parent="1">
          <mxGeometry x="580" y="330" width="60" height="30" as="geometry" />
        </mxCell>
        <mxCell id="25QhoJMQ2zQzSuma18HG-59" style="edgeStyle=orthogonalEdgeStyle;rounded=0;orthogonalLoop=1;jettySize=auto;html=1;exitX=0.5;exitY=1;exitDx=0;exitDy=0;" edge="1" parent="1" source="25QhoJMQ2zQzSuma18HG-56" target="25QhoJMQ2zQzSuma18HG-56">
          <mxGeometry relative="1" as="geometry" />
        </mxCell>
        <mxCell id="25QhoJMQ2zQzSuma18HG-60" value="1..*" style="text;html=1;strokeColor=none;fillColor=none;align=center;verticalAlign=middle;whiteSpace=wrap;rounded=0;" vertex="1" parent="1">
          <mxGeometry x="700" y="110" width="60" height="30" as="geometry" />
        </mxCell>
      </root>
    </mxGraphModel>
  </diagram>
</mxfile>
